<?xml version="1.0" encoding="UTF-8" standalone="no"?>
<!-- Created with Inkscape (http://www.inkscape.org/) -->

<svg
   width="127mm"
   height="186.77379mm"
   viewBox="0 0 127 186.77379"
   version="1.1"
   id="svg1"
   inkscape:version="1.3.1 (91b66b0783, 2023-11-16)"
   sodipodi:docname="notes.svg"
   xmlns:inkscape="http://www.inkscape.org/namespaces/inkscape"
   xmlns:sodipodi="http://sodipodi.sourceforge.net/DTD/sodipodi-0.dtd"
   xmlns="http://www.w3.org/2000/svg"
   xmlns:svg="http://www.w3.org/2000/svg">
  <sodipodi:namedview
     id="namedview1"
     pagecolor="#ffffff"
     bordercolor="#000000"
     borderopacity="0.25"
     inkscape:showpageshadow="2"
     inkscape:pageopacity="0.0"
     inkscape:pagecheckerboard="0"
     inkscape:deskcolor="#d1d1d1"
     inkscape:document-units="mm"
     inkscape:zoom="1.4778115"
     inkscape:cx="141.08701"
     inkscape:cy="489.57529"
     inkscape:window-width="2560"
     inkscape:window-height="1369"
     inkscape:window-x="-8"
     inkscape:window-y="-8"
     inkscape:window-maximized="1"
     inkscape:current-layer="layer1" />
  <defs
     id="defs1" />
  <g
     inkscape:label="Layer 1"
     inkscape:groupmode="layer"
     id="layer1"
     transform="translate(-54.078658,-30.480707)">
    <path
       style="fill:#211e1e;fill-opacity:1;fill-rule:nonzero;stroke:none;stroke-width:0.352778"
       d="m 181.07866,32.595998 v -0.638034 h -2.0271 v -1.477257 h -0.88194 c 0,0 -0.35002,0.508494 -1.29123,0.508494 H 58.278918 c -0.9412,0 -1.29122,-0.508494 -1.29122,-0.508494 h -0.88195 v 1.477257 h -2.02709 v 0.638034 c 0.83371,0 0.87919,1.365638 0.87919,1.365638 V 212.92608 c 0,0 -0.0455,1.36702 -0.87919,1.36702 v 0.63665 h 2.02709 v 2.32474 h 0.88195 V 31.576259 H 178.16962 V 216.15894 H 56.987698 v 1.09555 c 0,0 0.3514,-0.50712 1.2926,-0.50712 H 176.87839 c 0.93569,0 1.28709,0.50162 1.29123,0.50712 h 0.88194 v -2.32474 h 2.0271 v -0.63665 c -0.83372,0 -0.87919,-1.36702 -0.87919,-1.36702 V 33.961636 c 0,0 0.0455,-1.365638 0.87919,-1.365638 M 56.105748,212.92608 h -0.61874 V 34.490803 h 0.61874 z m 123.564552,0 h -0.61874 V 34.490803 h 0.61874 z"
       id="path186"
       sodipodi:nodetypes="cccccsscccccccccccccccccsscccccccccccccccccc" />
  </g>
</svg>
