<?xml version="1.0" encoding="UTF-8" standalone="no"?>
<!-- Created with Inkscape (http://www.inkscape.org/) -->

<svg
   width="5cm"
   height="18cm"
   viewBox="0 0 50.000001 180"
   version="1.1"
   id="svg1"
   inkscape:version="1.3.1 (91b66b0783, 2023-11-16)"
   sodipodi:docname="initiative-tracker.svg"
   xmlns:inkscape="http://www.inkscape.org/namespaces/inkscape"
   xmlns:sodipodi="http://sodipodi.sourceforge.net/DTD/sodipodi-0.dtd"
   xmlns="http://www.w3.org/2000/svg"
   xmlns:svg="http://www.w3.org/2000/svg">
  <sodipodi:namedview
     id="namedview1"
     pagecolor="#ffffff"
     bordercolor="#000000"
     borderopacity="0.25"
     inkscape:showpageshadow="2"
     inkscape:pageopacity="0.0"
     inkscape:pagecheckerboard="false"
     inkscape:deskcolor="#d1d1d1"
     inkscape:document-units="mm"
     inkscape:zoom="4"
     inkscape:cx="203.625"
     inkscape:cy="730.125"
     inkscape:window-width="2560"
     inkscape:window-height="1369"
     inkscape:window-x="-8"
     inkscape:window-y="-8"
     inkscape:window-maximized="1"
     inkscape:current-layer="layer1"
     showborder="false"
     labelstyle="default"
     inkscape:clip-to-page="false" />
  <defs
     id="defs1" />
  <g
     inkscape:label="Layer 1"
     inkscape:groupmode="layer"
     id="layer1"
     transform="translate(-64.293769,-53.710423)"
     style="display:inline;opacity:1">
    <path
       style="fill:#211e1e;fill-opacity:1;fill-rule:nonzero;stroke:none;stroke-width:0.352778"
       d="m 112.63767,205.23668 -0.001,-123.009135 c 0.22324,-3.620106 0.76068,-10.956783 1.59301,-13.656359 l 0.0593,-0.195682 -0.17363,-0.107484 c -0.0124,-0.0069 -0.5333,-0.336243 -1.06109,-0.890214 0.17088,-0.975653 0.39136,-1.89756 0.67386,-2.711979 l 0.0344,-0.09784 -0.7152,-7.974704 -0.31006,-0.09509 c -0.7276,-0.225997 -2.80017,-1.132745 -2.80017,-2.302701 V 53.710423 H 68.645592 v 0.485069 c 0,1.171332 -2.021578,2.05879 -2.800173,2.302701 l -0.310056,0.09646 -0.715204,7.973328 0.03447,0.09784 c 0.282497,0.813043 0.501608,1.732192 0.672483,2.705089 -0.526412,0.559481 -1.047309,0.89021 -1.059713,0.897104 l -0.17363,0.108863 0.05926,0.194303 c 0.830954,2.695445 1.36839,10.015583 1.591631,13.6412 l 0.0014,123.01049 c -0.223241,3.6201 -0.760677,10.95679 -1.59301,13.65497 l -0.05926,0.19569 0.173631,0.10749 c 0.01242,0.007 0.533301,0.33623 1.061092,0.8902 -0.170879,0.97568 -0.391365,1.89759 -0.673862,2.71198 l -0.03447,0.0992 0.715204,7.97335 0.310057,0.0951 c 0.778594,0.24391 2.800173,1.13273 2.800173,2.30406 v 0.48369 h 41.291125 v -0.48369 c 0,-1.17133 2.02158,-2.06015 2.80017,-2.30406 l 0.31006,-0.0951 0.7152,-7.97335 -0.0344,-0.0992 c -0.28142,-0.81153 -0.50161,-1.73218 -0.67248,-2.70507 0.52641,-0.5595 1.04731,-0.89023 1.05971,-0.89711 l 0.17363,-0.10887 -0.0592,-0.19431 c -0.83096,-2.69543 -1.3684,-10.01557 -1.59164,-13.64117 m -1.10518,17.95169 c 0.003,0.01 0.12815,0.30456 0.29214,0.74278 0.073,0.65592 0.12953,2.02018 -0.38309,3.52086 -0.85025,2.48599 -2.92971,4.30498 -6.02479,5.31647 H 73.143509 c -6.647656,-2.16352 -6.574617,-7.28843 -6.392718,-8.81945 0.170879,-0.46164 0.305926,-0.77995 0.314195,-0.80338 0.256314,-1.09142 -0.100598,-2.03535 -0.603582,-2.76849 0.974274,-5.34127 0.47818,-12.14325 0.453373,-12.45055 l -0.0014,-128.368322 c 0.02618,-0.337619 0.522277,-7.152019 -0.454751,-12.496048 0.501604,-0.738629 0.854382,-1.692233 0.592554,-2.801553 -0.0041,-0.0096 -0.129533,-0.304546 -0.293522,-0.742763 -0.07304,-0.655945 -0.129537,-2.018824 0.383095,-3.520888 0.851627,-2.485979 2.92971,-4.30499 6.026161,-5.31647 h 32.271866 c 6.64765,2.163519 6.57462,7.288445 6.39272,8.819444 -0.17088,0.461641 -0.30593,0.77997 -0.3142,0.803395 -0.25631,1.092785 0.1006,2.035365 0.60496,2.76848 -0.97565,5.341277 -0.47956,12.143274 -0.45475,12.450575 l 0.001,128.3683 c -0.0262,0.33761 -0.52228,7.15201 0.45475,12.49606 -0.5016,0.73999 -0.85438,1.69362 -0.59118,2.80155 m 2.13458,-154.582727 c -0.49333,1.743216 -0.87643,4.982986 -1.15203,8.068412 -0.051,-2.308215 -0.0165,-5.669248 0.4327,-8.652701 0.29077,0.270094 0.55535,0.469911 0.71933,0.584289 m -1.64951,-4.136874 c 0.0248,-0.05788 0.32798,-0.768942 0.61323,-1.649511 l 0.14607,1.628842 c -0.19568,0.578778 -0.35967,1.204405 -0.5016,1.857597 -0.27148,-0.537435 -0.41479,-1.160311 -0.2577,-1.836928 m 0.12127,-7.150639 0.35691,3.992178 c -0.0717,0.343132 -0.16812,0.701421 -0.27423,1.045929 -0.022,-0.695907 -0.13367,-1.555803 -0.44786,-2.472199 -0.58016,-1.699123 -1.98575,-3.851617 -5.31509,-5.203472 h 2.5659 c 0.36105,1.485526 2.31097,2.342666 3.11437,2.637564 M 69.557851,54.680562 h 2.561774 c -4.798328,1.947167 -5.674763,5.601726 -5.746419,7.712879 -0.110243,-0.355533 -0.212217,-0.727604 -0.286632,-1.083137 l 0.356913,-3.992178 c 0.803395,-0.294898 2.753317,-1.152038 3.114364,-2.637564 m -3.752398,9.767534 0.146074,-1.628842 c 0.282498,0.8723 0.580154,1.569586 0.598068,1.606793 0.16123,0.686263 0.02205,1.316027 -0.246669,1.860353 -0.140561,-0.6463 -0.304546,-1.266419 -0.497473,-1.838304 m -0.172255,3.571875 c 0.450621,2.979318 0.48507,6.337596 0.434083,8.6527 -0.275608,-3.084046 -0.658703,-6.323816 -1.152038,-8.067032 0.163985,-0.114378 0.428568,-0.314195 0.717955,-0.585668 M 64.915243,218.84342 c 0.493335,-1.74322 0.87643,-4.98299 1.152038,-8.06842 0.05099,2.30823 0.01655,5.66925 -0.432703,8.65269 -0.290767,-0.27009 -0.55535,-0.4699 -0.719335,-0.58427 m 1.648132,4.13685 c -0.02342,0.0593 -0.326595,0.76895 -0.611848,1.64952 l -0.146074,-1.62747 c 0.195682,-0.57877 0.361047,-1.20439 0.501607,-1.85759 0.272853,0.53746 0.414789,1.16032 0.256315,1.83554 m -0.119888,7.15066 -0.356913,-3.9908 c 0.07166,-0.34314 0.169499,-0.70142 0.274229,-1.04595 0.02205,0.69593 0.133671,1.55445 0.447862,2.47082 0.580153,1.7005 1.985754,3.85163 5.315094,5.20348 h -2.565908 c -0.361047,-1.48414 -2.310969,-2.34266 -3.114364,-2.63755 m 42.580963,2.63755 h -2.56315 c 4.79971,-1.94716 5.67614,-5.60173 5.74918,-7.71148 0.10886,0.35553 0.21084,0.72623 0.28525,1.08313 l -0.35691,3.9908 c -0.8034,0.29489 -2.75332,1.15341 -3.11437,2.63755 m 3.7524,-9.76616 -0.14607,1.62747 c -0.2825,-0.87228 -0.58015,-1.56821 -0.59807,-1.60542 -0.16123,-0.68764 -0.0221,-1.31738 0.24667,-1.86172 0.14056,0.64629 0.30455,1.2664 0.49747,1.83967 m 0.17225,-3.57325 c -0.45061,-2.97794 -0.48507,-6.33621 -0.43407,-8.65269 0.2756,3.08543 0.6587,6.32382 1.15203,8.06704 -0.16398,0.11437 -0.42856,0.31418 -0.71796,0.58565"
       id="path279"
       sodipodi:nodetypes="ccccccccccsccsccccccccccccccccccsccscccscccccccccccccccccccccccccccccccccccccccccccccccccccccccccccccccccccccccccccccccccccccccccc" />
  </g>
</svg>
