<?xml version="1.0" encoding="UTF-8" standalone="no"?>
<!-- Created with Inkscape (http://www.inkscape.org/) -->

<svg
   width="39.884998mm"
   height="9.927mm"
   viewBox="0 0 39.884999 9.9270002"
   version="1.1"
   id="svg1"
   sodipodi:docname="round.svg"
   inkscape:version="1.3.1 (91b66b0783, 2023-11-16)"
   xmlns:inkscape="http://www.inkscape.org/namespaces/inkscape"
   xmlns:sodipodi="http://sodipodi.sourceforge.net/DTD/sodipodi-0.dtd"
   xmlns="http://www.w3.org/2000/svg"
   xmlns:svg="http://www.w3.org/2000/svg">
  <sodipodi:namedview
     id="namedview1"
     pagecolor="#ffffff"
     bordercolor="#000000"
     borderopacity="0.25"
     inkscape:showpageshadow="2"
     inkscape:pageopacity="0.0"
     inkscape:pagecheckerboard="0"
     inkscape:deskcolor="#d1d1d1"
     inkscape:document-units="mm"
     inkscape:zoom="8"
     inkscape:cx="87.8125"
     inkscape:cy="16.0625"
     inkscape:window-width="2560"
     inkscape:window-height="1369"
     inkscape:window-x="-8"
     inkscape:window-y="-8"
     inkscape:window-maximized="1"
     inkscape:current-layer="layer1" />
  <defs
     id="defs1" />
  <g
     inkscape:label="Layer 1"
     inkscape:groupmode="layer"
     id="layer1"
     transform="translate(-65.087501,-138.64167)">
    <path
       style="fill:#211919;fill-opacity:1;fill-rule:nonzero;stroke:none;stroke-width:0.352778"
       d="m 65.088186,141.34521 0.139181,-0.0655 c 0.51606,-0.24252 1.155451,-1.17884 1.357325,-1.5185 l 0.07097,-0.11851 h 28.389502 v -1.00108 h 2.424583 l 0.09302,0.11643 c 0.15571,0.19568 0.347255,0.35001 0.559463,0.45955 0.52502,-0.22598 1.078973,-0.35345 1.638442,-0.38238 0.0441,-0.0936 0.137111,-0.15984 0.247358,-0.15984 0.11024,0 0.20394,0.0662 0.24735,0.15984 0.55946,0.029 1.11342,0.1564 1.63775,0.38238 0.2129,-0.10954 0.40444,-0.26387 0.56015,-0.45955 l 0.093,-0.11643 h 2.42527 v 9.92607 h -2.42527 l -0.093,-0.11644 c -0.15571,-0.19498 -0.34656,-0.34999 -0.55947,-0.45886 -0.52364,0.22668 -1.07277,0.35552 -1.63981,0.38445 -0.0441,0.0924 -0.13642,0.15709 -0.24597,0.15709 -0.108872,0 -0.201885,-0.0648 -0.245978,-0.15709 -0.567048,-0.029 -1.116872,-0.15777 -1.640512,-0.38445 -0.212208,0.10887 -0.403753,0.26388 -0.558773,0.45886 l -0.09302,0.11644 h -2.424583 v -1.0004 H 66.654969 l -0.07097,-0.1185 c -0.202564,-0.34035 -0.841265,-1.27667 -1.356635,-1.51919 l -0.139866,-0.0655 z m 2.414943,4.97371 h 26.834428 v -5.42775 H 67.502439 c -0.81784,0.46093 -1.639126,1.08721 -1.929887,1.84164 v 1.7431 c 0.290071,0.75512 1.112047,1.3814 1.930577,1.84301 m 27.542032,-5.42775 h -0.443027 v 5.42775 h 0.443027 z m -29.471919,0.75237 v 0.52292 c 0.639391,-0.95009 1.957446,-1.64596 2.871059,-2.03867 h -1.5158 c -0.199809,0.31348 -0.770297,1.15678 -1.355259,1.51575 m 3.588993,-1.51575 c -0.275597,0.10265 -0.696574,0.27077 -1.158206,0.49882 h 27.041132 v -0.49882 z m 31.073155,-1.03209 c -0.0489,0.0765 -0.13022,0.12885 -0.22737,0.12885 -0.09715,0 -0.178456,-0.0524 -0.227375,-0.12885 -0.439582,0.0221 -0.875719,0.10818 -1.294626,0.25906 0.128841,0.0317 0.261127,0.0489 0.396173,0.0489 h 2.251648 c 0.13504,0 0.26733,-0.0173 0.39548,-0.0489 -0.41822,-0.15088 -0.85435,-0.23701 -1.29393,-0.25906 m -0.454055,9.018 c 0.0489,-0.0758 0.130221,-0.12952 0.226675,-0.12952 0.0972,0 0.17846,0.0538 0.22669,0.12952 0.44027,-0.0221 0.8764,-0.10816 1.29462,-0.25906 -0.12815,-0.0317 -0.26044,-0.0489 -0.39548,-0.0489 h -2.251648 c -0.135046,0 -0.267332,0.0173 -0.396173,0.0489 0.418907,0.1509 0.855044,0.23702 1.295316,0.25906 m -2.603038,-0.16329 c 0.440272,-0.48571 1.052789,-0.762 1.703895,-0.762 h 2.251648 c 0.65111,0 1.26362,0.27629 1.70389,0.762 h 0.41065 c 0,0 1.10584,-0.0117 1.10584,-1.49921 v -5.69231 c 0,-1.48888 -1.10584,-1.4999 -1.10584,-1.4999 h -0.41065 c -0.44027,0.48642 -1.05278,0.76201 -1.70389,0.76201 h -2.251648 c -0.651106,0 -1.263623,-0.27559 -1.703895,-0.76201 h -0.409952 c 0,0 -1.105843,0.0111 -1.105843,1.4999 v 5.69231 c 0,1.48751 1.105843,1.49921 1.105843,1.49921 z m -2.133136,-1.36692 H 68.004719 c 0.460942,0.22736 0.881919,0.39616 1.157516,0.49882 h 25.882926 z m -28.11735,0.49882 h 1.51649 c -0.914303,-0.39341 -2.232358,-1.08927 -2.871749,-2.04006 v 0.52431 c 0.584962,0.35827 1.15545,1.20158 1.355259,1.51575"
       id="path334"
       sodipodi:nodetypes="ccccccccccsccccccccccsccccccccccccccccccccccccccccccccccsccsscccsccsscccssccssccssccsscccccccccccc" />
  </g>
</svg>
